<!DOCTYPE svg>
<svg xmlns="http://www.w3.org/2000/svg" viewBox="0 0 120 120">
    <path stroke="#000" stroke-width="3" stroke-linejoin="round" d="M25,105c0,15,70,15,70,0l-35-95l-35,95z"></path>
    <path fill="#fc0" d="M25,105c0,15,70,15,70,0l-35-95l-35,95z"></path>
    <path fill="#e50" d="M25,105c0-15,70-15,70,0c0-16-70-16-70,0z"></path>
    <path stroke="#000" stroke-width="3" stroke-linejoin="round" d="M5,35c0,18,110,18,110,0c0-15-110-15-110,0zM35,25c5-25,45,-25,50,0z"></path>
    <path fill="#fff" d="M5,35c0,18,110,18,110,0c0-15-110-15-110,0z"></path>
    <path fill="#fff" d="M35,25c5-25,45,-25,50,0z"></path>
    <path fill="#e50" d="M35,25c0,10,50,10,50,0c0,8-50,8-50,0z"></path>
    <path fill="#fc0" d="M37.5,21.5c0,5,7,5,7,0c0-5-7-5-7,0z"></path>
    <path fill="#fc0" d="M48,24c0,5,8,5,8,0c0-5-8-5-8,0z"></path>
    <path fill="#fc0" d="M62,24c0,5,8,5,8,0c0-5-8-5-8,0z"></path>
    <path fill="#fc0" d="M75.5,21.5c0,5,7,5,7,0c0-5-7-5-7,0z"></path>
</svg>