<!DOCTYPE svg>
<svg xmlns="http://www.w3.org/2000/svg" viewBox="0 0 120 120" width="60" height="60">
  <path stroke="#123" stroke-width="2" stroke-linejoin="round" d="M20,20c0-20,80-20,80,0v80c0,20-80,20-80,0z"></path>
  <path fill="#e52" d="M20,20c0-20,80-20,80,0v80c0,20-80,20-80,0z"></path>
  <path fill="#fc3" d="M24,20c0-16,72-16,72,0c0,16-72,16-72,0z"></path>
  <path fill="#fff" d="M30,20c0-12,60-12,60,0c0,12-60,12-60,0m4,0c0,10,52,10,52,0c0-10-52-10-52-0m8,0c0-6,36-6,36,0c0,6-36,6-36,0m4,0c0,4,28,4,28,0c0-4-28-4-28-0z"></path>
  <path fill="#fc3" d="M24,27v80l0.7,0.4m9,4.3v-80l2,0.5m13,2.3l2,0.1v80l2,0.2m18-0.3l2-0.2v-80l-1,0.1m12-2l2-0.5v80l1-0.4m7-3l1-0.5v-80l0.5-0.4z"></path>
  <path fill="#e52" d="M90,40c15-6,27,24,12,30l-8,6c-15,6-27-24-12-30z"></path>
  <path fill="#fc3" d="M91,42c12-5,22,21,10,26c-12,5-22-21-10-26z"></path>
  <path fill="#fff" d="M93,46c8-2,14,14,6,18c-8,2-14-14-6-18m0.5,2c-7,3-1,17,5,14c7-3,1-17-5-14z"></path>
</svg>
