<svg xmlns="http://www.w3.org/2000/svg" viewBox="0 0 141.364 135.095">

      <path fill="#EFEFEF" d="M27.814 104.741l-0.011-0.989c-0.064-5.827 2.012-9.01 2.033-9.041c0.056-0.083 0.048-0.194-0.019-0.271 c-0.042-0.047-0.103-0.074-0.166-0.074c-0.034 0-0.067 0.008-0.098 0.023c-5.726 2.863-8.982 6.005-10.413 7.622l-0.761 0.9 L1.663 83.369l0.338-0.607c12.003-21.603 31.971-25.493 32.171-25.53c0.082-0.015 0.147-0.072 0.172-0.149 c0.025-0.079 0.006-0.163-0.05-0.221c-6.079-6.298-16.151-8.097-20.2-8.578l-1.286-0.153l0.473-1.206 C20.223 29.2 30.5 18.3 32.5 16.289l0.373-0.375l0.52 0.097c9.955 1.9 20.2 10.5 20.3 10.6 c0.049 0 0.1 0.1 0.1 0.051c0.029 0 0.074-0.006 0.118-0.035c0.083-0.053 0.121-0.151 0.095-0.245 c-2.064-7.546-11.672-13.845-14.568-15.595l-1.021-0.618l7.5-8.552l0.587 0.141c12.305 2.9 20.9 21.7 21 21.9 c0.036 0.1 0.1 0.1 0.2 0.13c0.16-0.033 0.229-0.129 0.223-0.236c-0.324-4.843-2.647-13.118-3.632-16.451l-0.338-1.145 L78.08 4.34l-0.353 1.398c-1.55 6.15-1.878 15.459-1.892 15.853c-0.003 0.1 0.1 0.2 0.2 0.226c0.003 0 0 0 0 0 c0.129 0 0.21-0.062 0.238-0.154C78.341 14.9 85.6 9.2 88.6 7.055l0.801-0.567l7.427 10.08l-1.276 0.4 c-5.159 1.811-7.867 5.159-9.23 7.649c-1.674 3.058-1.892 5.776-1.894 5.804c-0.007 0.1 0 0.2 0.1 0.2 c0.029 0 0.1 0 0.1 0.005c0.095 0 0.141-0.026 0.175-0.066c7.255-8.386 20.451-12.755 24.322-13.895l0.574-0.169 l0.42 0.426c7.085 7.2 15.8 24.4 19.2 31.53l0.739 1.538l-1.703-0.106c-0.214-0.013-0.428-0.02-0.643-0.02 c-7.08 0-13.299 6.981-13.561 7.279c-0.063 0.072-0.072 0.176-0.023 0.259c0.04 0.1 0.1 0.1 0.2 0.1 c4.836-1.094 9.749-1.322 13.027-1.322c1.7 0 3.1 0.1 4 0.114l0.99 0.058l-0.623 12.4l-1.096-0.168 c-0.915-0.141-1.952-0.212-3.081-0.212c-3.463 0-6.733 0.645-7.095 0.719c-0.097 0.02-0.17 0.105-0.175 0.2 c-0.005 0.1 0.1 0.2 0.2 0.219c9.662 3 16.8 10.7 18.7 12.971l0.595 0.698l-16.554 16.812l-0.696-0.937 c-4.564-6.144-8.915-6.39-8.958-6.392c-0.001 0-0.001 0-0.002 0c-0.082 0-0.14 0.019-0.193 0.1 c-0.042 0.067-0.045 0.152-0.008 0.223c2.298 4.3 2.5 8.6 2.5 10.697l-0.027 0.973H27.814z"></path><path fill="#FFFFFF" d="M70.106 5.341L78.08 4.34l-0.353 1.398c-1.55 6.151-1.878 15.459-1.892 15.9 c-0.003 0.1 0.1 0.2 0.2 0.226c0.003 0 0 0 0 0c0.129 0 0.21-0.062 0.238-0.154 C78.341 14.9 85.6 9.2 88.6 7.055l0.801-0.567l7.427 10.08l-1.276 0.448c-5.159 1.811-7.867 5.159-9.23 7.6 c-1.675 3.059-1.892 5.776-1.894 5.803c-0.007 0.1 0 0.2 0.1 0.221c0.029 0 0.1 0 0.1 0 c0.095 0 0.141-0.026 0.175-0.066c7.253-8.384 20.45-12.755 24.322-13.896l0.574-0.169l0.42 0.4 c7.085 7.2 15.8 24.4 19.2 31.531l0.741 1.542l-1.707-0.11c-0.213-0.014-0.427-0.02-0.641-0.02 c-7.08 0-13.299 6.982-13.561 7.279c-0.063 0.072-0.072 0.176-0.023 0.259c0.039 0.1 0.1 0.1 0.2 0.1 c4.836-1.094 9.749-1.322 13.027-1.322c1.699 0 3.1 0.1 4 0.114l0.99 0.058l-0.623 12.4l-1.096-0.168 c-0.915-0.141-1.952-0.212-3.081-0.212c-3.464 0-6.733 0.645-7.095 0.719c-0.097 0.02-0.169 0.104-0.174 0.2 c-0.005 0.1 0.1 0.2 0.2 0.221c9.662 3 16.8 10.7 18.7 12.971l0.595 0.698l-16.554 16.812l-0.696-0.937 c-4.564-6.144-8.915-6.39-8.958-6.392c-0.001 0-0.001 0-0.002 0c-0.083 0-0.14 0.019-0.193 0.1 c-0.042 0.067-0.045 0.152-0.008 0.223c2.298 4.3 2.5 8.6 2.5 10.697l-0.027 0.973l-45.696 0.007V5.341z"></path><path fill="#F2D48F" d="M71.38 123.686l-1.274 0.034l-2.346 0.063c-4.684-0.562-12.766-1.708-15.835-3.233v14.328l12.825-7.106 c1.447 1.3 3.3 2.4 5.4 2.39c0.034 0 0.1 0 0.1 0.006c0.45 0 0.895-0.029 1.334-0.084L71.38 123.686z"></path><path fill="#FFF8D6" d="M70.107 123.72v6.441c0.034 0 0.1 0 0.1 0.006c2.564 0 4.953-0.953 6.939-2.145l12.37 6.9 v-14.328c-2.953 1.547-7.871 2.454-12.008 2.973L70.107 123.72z"></path><path fill="#B2AEAB" d="M141.015 82.55c-0.284-0.375-6.235-8.115-15.658-12.577c0.706-0.051 1.45-0.083 2.199-0.083 c1.613 0 3 0.1 4.1 0.445c0.357 0.1 0.7 0 1.038-0.19c0.299-0.217 0.484-0.558 0.503-0.927l0.649-12.92 c0.033-0.652-0.452-1.214-1.101-1.277c-0.087-0.009-2.172-0.208-5.325-0.208c-2.403 0-5.668 0.121-9.136 0.6 c2.363-1.882 5.864-4.039 9.501-4.039c0.848 0 1.7 0.1 2.5 0.357c0.116 0 0.2 0.1 0.4 0.1 c0.005 0 0 0 0 0c0.675 0 1.221-0.547 1.221-1.221c0-0.242-0.07-0.467-0.191-0.657 c-1.073-2.317-12.223-26.133-20.949-34.463c-0.307-0.292-0.743-0.404-1.152-0.298c-0.613 0.161-13.476 3.596-22.421 11.3 c1.362-3.026 4.28-6.858 10.494-8.49c0.392-0.103 0.707-0.393 0.841-0.775c0.135-0.382 0.072-0.805-0.168-1.131L90.486 5.5 c-0.381-0.518-1.097-0.65-1.638-0.306c-0.357 0.227-6.985 4.493-11.179 10.548c0.331-3.674 0.92-8.249 1.927-11.25 c0.132-0.395 0.054-0.831-0.207-1.156c-0.262-0.324-0.671-0.496-1.086-0.447L71.531 3.62l-1.425 0.159l-6.444 0.7 c-0.362 0.041-0.687 0.24-0.887 0.545c-0.199 0.305-0.252 0.683-0.144 1.031c0.024 0.1 1.6 5.3 2.8 10.5 c-3.853-6.182-10.655-14.83-19.301-16.451c-0.423-0.08-0.859 0.071-1.143 0.395l-7.768 8.855c-0.244 0.279-0.349 0.655-0.284 1 c0.066 0.4 0.3 0.7 0.6 0.859c0.105 0.1 8.7 4.8 13.1 11.146c-4.152-2.88-10.928-6.906-17.611-7.961 c-0.371-0.059-0.749 0.057-1.024 0.314c-0.519 0.485-12.813 12.12-20.659 33.134c-0.135 0.363-0.091 0.8 0.1 1.1 c0.212 0.3 0.6 0.5 1 0.552c0.126 0 11.8 0.8 19.2 6.804c-5.806 1.683-21.272 7.75-31.313 26.4 c-0.238 0.444-0.179 1 0.1 1.372l17.021 19.858c0.247 0.3 0.6 0.4 1 0.423c0.379-0.021 0.728-0.218 0.942-0.531 c0.026-0.038 2.281-3.264 7.754-6.601c-0.537 1.856-0.972 4.438-0.776 7.69c0.039 0.6 0.6 1.1 1.2 1.148h76.734h3.995 h7.617c0.611 0 1.127-0.451 1.21-1.055c0.03-0.222 0.624-4.817-1.395-10.157c1.643 0.8 4 2.6 6.4 6.1 c0.204 0.3 0.5 0.5 0.9 0.538c0.37 0 0.729-0.097 0.986-0.359l16.889-17.152 C141.337 83.7 141.4 83 141 82.55z M123.31 98.54c-4.854-6.534-9.516-6.786-9.723-6.794 c-0.463-0.018-0.849 0.202-1.081 0.572c-0.232 0.371-0.248 0.837-0.042 1.223c2.226 4.2 2.4 8.3 2.4 10.2h-7.397h-2.153 H28.803c-0.061-5.452 1.848-8.45 1.865-8.477c0.307-0.461 0.266-1.07-0.101-1.486c-0.367-0.414-0.965-0.532-1.461-0.284 c-5.852 2.926-9.201 6.143-10.715 7.854L2.874 83.247C14.64 62.1 34.2 58.3 34.4 58.2 c0.443-0.081 0.806-0.398 0.943-0.827c0.138-0.429 0.029-0.899-0.284-1.222c-6.331-6.558-16.767-8.397-20.8-8.876 c6.831-17.411 16.869-28.108 19.043-30.296c9.629 1.8 19.8 10.3 19.9 10.355c0.409 0.3 1 0.4 1.4 0.1 c0.451-0.288 0.662-0.835 0.521-1.351C52.949 18.3 43.6 12 40.1 9.907l6.316-7.2 c11.837 2.8 20.3 21.1 20.4 21.309c0.244 0.5 0.8 0.8 1.4 0.679c0.572-0.144 0.959-0.677 0.92-1.265 c-0.33-4.952-2.686-13.334-3.67-16.667l6.154-0.687v0l5.214-0.582c-1.573 6.243-1.906 15.627-1.921 16.1 c-0.02 0.6 0.4 1.1 1 1.246c0.607 0.1 1.189-0.261 1.369-0.846c2.01-6.544 9.365-12.224 11.994-14.085l6.042 8.2 c-5.405 1.897-8.286 5.39-9.776 8.112c-1.777 3.246-2.005 6.091-2.013 6.21c-0.039 0.5 0.3 1 0.7 1.2 c0.488 0.2 1 0.1 1.392-0.329c7.192-8.314 20.713-12.668 23.849-13.591c7.095 7.2 16 25.1 19 31.3 c-0.234-0.015-0.469-0.022-0.705-0.022c-7.531 0-14.037 7.308-14.311 7.619c-0.349 0.398-0.402 0.975-0.132 1.4 c0.271 0.5 0.8 0.7 1.3 0.566c4.698-1.068 9.531-1.293 12.758-1.293c1.664 0 3 0.1 3.9 0.112l-0.518 10.3 c-0.966-0.148-2.048-0.224-3.234-0.224c-3.68 0-7.149 0.709-7.295 0.739c-0.546 0.113-0.945 0.581-0.972 1.1 c-0.027 0.6 0.3 1.1 0.9 1.225c9.324 2.9 16.2 10.2 18.3 12.665L123.31 98.54z"></path><path fill="#F7CBAA" d="M35.962 106.183c0.304 0.6 0.7 1.3 1.1 1.881c5.859 8.7 15.8 12.8 33.1 13.6 c0.001 0 0 0 0 0c0.018 0 0 0 0.1 0.001c0.018 0 0 0 0.056-0.001c0.658-0.03 1.306-0.065 1.943-0.105 l-0.443-83.156H45.835c-0.326 0-0.638 0.13-0.867 0.361c-0.23 0.231-0.357 0.545-0.354 0.9 c0.002 0.3 0.2 24.148-3.731 38.301c-0.647-1.331-1.712-2.691-3.465-3.706c-0.44-0.255-0.901-0.384-1.368-0.384 c-3.499 0-5.128 7.087-5.128 11.877c0 1.2 0.1 3 0.7 4.425c0.815 2.1 2.2 2.5 3 2.5 c0.159 0 0.555-0.009 1.061-0.083c-0.985 2.931-1.782 7.08-0.616 11.27L35.962 106.183z"></path><path fill="#FFD5AB" d="M70.107 121.617c0.018 0 0 0 0.1 0.001c0.018 0 0 0 0.056-0.001 c17.323-0.797 27.213-4.85 33.073-13.553c0.417-0.62 0.766-1.248 1.07-1.881l0.921-2.442c1.166-4.191 0.369-8.341-0.616-11.271 c0.511 0.1 0.9 0.1 1.1 0.084c0 0 0 0 0 0c0.77 0 2.185-0.319 3-2.455c0.538-1.409 0.651-3.185 0.651-4.427 c0-4.789-1.629-11.874-5.126-11.874c-0.468 0-0.928 0.129-1.368 0.385c-1.753 1.015-2.82 2.377-3.466 3.7 c-3.885-14.151-3.733-38.038-3.731-38.303c0.003-0.326-0.125-0.639-0.354-0.87c-0.229-0.231-0.541-0.361-0.867-0.361H70.107 v59.705V121.617z"></path><path fill="#FFFFFF" d="M98.922 105.407c-0.002-0.015-0.027-0.173-0.083-0.444c-0.06-0.288-0.157-0.708-0.299-1.221 c-1.117-4.035-5.133-14.056-17.507-14.715c0.014 0.42-0.015 0.827-0.083 1.222c-0.07 0.412-0.181 0.811-0.326 1.2 c-0.192 0.518-0.442 1.019-0.734 1.512c-0.364 0.613-0.791 1.212-1.252 1.811c-0.05 0.065-0.099 0.13-0.149 0.2 c-0.856 1.101-2.53 2.026-4.527 2.57c-0.767 0.209-1.582 0.361-2.416 0.446c-0.157 0.016-0.315 0.032-0.473 0 c-0.363 0.026-0.721 0.038-1.076 0.038c-3.205 0-6.034-1.045-8.054-2.996c-0.741-0.716-1.341-1.448-1.801-2.193 c-0.239-0.388-0.437-0.78-0.6-1.175c-0.161-0.39-0.287-0.782-0.373-1.178c-0.391 0.044-0.825 0.104-1.301 0.188l-0.092-0.051 c-0.014 0.025-0.026 0.051-0.04 0.076c-4.4 0.806-11.842 3.57-14.708 13.006c-0.12 0.394-0.229 0.804-0.332 1.2 c-0.055 0.224-0.112 0.447-0.162 0.678l-0.118 0.543l-0.206 0.947l9.608-0.056c0.023-0.291 0.051-0.589 0.084-0.89 c0.012-0.11 0.024-0.22 0.037-0.331c0.034-0.294 0.072-0.591 0.114-0.889c0.057-0.407 0.12-0.815 0.186-1.221 c0.555-3.378 1.394-6.583 1.451-6.799l0.119 0.031l1.754 0.463l0.488 0.129c-0.009 0.036-0.422 1.61-0.856 3.7 c-0.165 0.784-0.333 1.638-0.483 2.505c-0.05 0.291-0.099 0.583-0.145 0.874c-0.018 0.116-0.035 0.232-0.053 0.3 c-0.044 0.294-0.084 0.586-0.121 0.875c-0.015 0.116-0.029 0.231-0.042 0.346c-0.035 0.298-0.065 0.591-0.09 0.876l2.391-0.014 c-0.002-0.271 0.002-0.558 0.013-0.862c0.004-0.12 0.006-0.234 0.013-0.359c0.016-0.276 0.038-0.564 0.069-0.862 c0.039-0.389 0.096-0.799 0.166-1.221c0.157-0.957 0.398-1.988 0.76-3.071c0.367-1.097 0.852-2.243 1.5-3.411l2.136 1.2 c-1.042 1.878-1.606 3.699-1.906 5.298c-0.054 0.29-0.101 0.572-0.138 0.847c-0.017 0.126-0.035 0.252-0.049 0.4 c-0.034 0.293-0.06 0.577-0.078 0.847c-0.008 0.129-0.013 0.25-0.019 0.374c-0.013 0.301-0.019 0.584-0.017 0.847l14.299-0.084 c-0.005-0.256-0.013-0.511-0.023-0.763c-0.006-0.154-0.013-0.306-0.02-0.457c-0.013-0.26-0.029-0.514-0.046-0.763 c-0.029-0.431-0.062-0.84-0.097-1.221c-0.129-1.41-0.275-2.409-0.279-2.43l1.267-0.19l1.148-0.172 c0.014 0.1 0.2 1.2 0.3 2.791c0.021 0.2 0 0.5 0.1 0.75c0.011 0.2 0 0.3 0 0.5 c0.016 0.2 0 0.5 0 0.749c0.007 0.2 0 0.3 0 0.472c0.009 0.2 0 0.5 0 0.749l6.76-0.04 c-0.048-0.24-0.101-0.474-0.153-0.709c-0.038-0.171-0.075-0.342-0.114-0.51c-0.056-0.24-0.114-0.477-0.173-0.711 c-0.106-0.42-0.216-0.828-0.328-1.221c-0.89-3.122-1.893-5.348-1.91-5.384l2.177-0.992l0.045-0.021 c0.075 0.2 1.3 2.8 2.2 6.396c0.062 0.2 0.1 0.5 0.2 0.698c0.043 0.2 0.1 0.3 0.1 0.5 c0.055 0.2 0.1 0.5 0.2 0.696c0.038 0.2 0.1 0.3 0.1 0.525c0.047 0.2 0.1 0.5 0.1 0.695l2.706-0.016 c-0.03-0.228-0.064-0.454-0.102-0.679c-0.031-0.181-0.065-0.362-0.101-0.541c-0.045-0.228-0.094-0.455-0.147-0.68 c-0.097-0.414-0.206-0.822-0.325-1.221c-0.478-1.611-1.107-3.092-1.737-4.352c-1.251-2.506-2.497-4.136-2.522-4.168l0.524-0.407 l1.406-1.09c0.111 0.1 1.5 1.9 2.8 4.661c0.758 1.5 1.5 3.4 2 5.357c0.058 0.2 0.1 0.4 0.2 0.7 c0.043 0.2 0.1 0.4 0.1 0.554c0.046 0.2 0.1 0.4 0.1 0.665c0.032 0.2 0.1 0.4 0.1 0.6 c0.033 0.2 0.1 0.4 0.1 0.664l8.871-0.052l-0.089-0.612L98.922 105.407z"></path>

      <path class="eye" fill="#7A7371" d="M56.22 74.285c-2.245 3.91-0.603 6.7 2.5 6.633c3.26-0.089 4.197-4.193 4.514-5.135 c0.319-0.943 0.885-4.071-1.002-4.986C62.22 70.8 58.8 69.7 56.2 74.285z"></path>

      <path class="leftEyeBrow" fill="#FFFFFF" d="M64.935 53.191c-10.593 1.578-15.941 6.375-15.941 6.375l1.107 7.433l16.652-4.931L64.935 53.191z"></path>

      <path class="eye" fill="#7A7371" d="M78.277 71.732c-1.864 0.905-1.304 3.992-0.991 4.923c0.314 0.9 0.9 4.1 4.2 4.2 c3.055 0.1 4.682-2.695 2.461-6.562C81.331 69.8 78.3 71.7 78.3 71.732z"></path>

      <path class="rightEyeBrow" fill="#FFFFFF" d="M74.359 62.432c0 0 13.7 6.3 14.7 7.376l4.208-6.312c0 0-6.049-5.643-17.183-9.205L74.359 62.432z"></path>

      <path class="tongue" fill="#E57A91" d="M71.784 107.506v0.033v6.039v0.164c0 0.696-0.564 1.261-1.261 1.261c-0.696 0-1.261-0.565-1.261-1.261 v-0.164v-6.039v-0.032c0-0.182 0.04-0.354 0.11-0.511h-6.265v6.582c0 3.4 3.3 6.1 7.4 6.1 c4.096 0 7.416-2.746 7.416-6.134v-6.582h-6.265C71.744 107.2 71.8 107.3 71.8 107.506z"></path>

    </svg>
