<!DOCTYPE svg>
<svg xmlns="http://www.w3.org/2000/svg" viewBox="0 0 120 120" width="60" height="60">
  <path stroke="#123" stroke-width="2" stroke-linejoin="round" d="M27,114c-4,0-8-4-8-8v-84c0-4,4-8,8-8h66c4,0,8,4,8,8v84c0,4-4,8-8,8z"></path>
  <path stroke="#123" stroke-width="2" stroke-linejoin="round" d="M36,29c-2,0-2-4,0-6c4-4,15-6,16-12c1-8,15-8,16,0c1,6,12,8,16,12c2,2,2,6,0,6zM57,12c0,4,6,4,6,0c0-4-6-4-6-0z"></path>
  <path stroke="#123" stroke-width="2" stroke-linejoin="round" d="M36,28c-2,0-2-4,0-6c4-4,15-6,16-12c1-8,15-8,16,0c1,6,12,8,16,12c2,2,2,6,0,6zM57,11c0,4,6,4,6,0c0-4-6-4-6-0z"></path>
  <path fill="#e52" d="M27,114c-4,0-8-4-8-8v-84c0-4,4-8,8-8h66c4,0,8,4,8,8v84c0,4-4,8-8,8z"></path>
  <path fill="#fff" d="M29,28c0-2,2-4,4,-4h54c2,0,4,2,4,4v72c0,2-2,4-4,4h-54c-2,0-4-2-4-4z"></path>
  <path fill="#e52" d="M36,29c-2,0-2-4,0-6c4-4,15-6,16-12c1-8,15-8,16,0c1,6,12,8,16,12c2,2,2,6,0,6zM57,12c0,4,6,4,6,0c0-4-6-4-6-0z"></path>
  <path fill="#fc3" d="M36,28c-2,0-2-4,0-6c4-4,15-6,16-12c1-8,15-8,16,0c1,6,12,8,16,12c2,2,2,6,0,6zM57,11c0,4,6,4,6,0c0-4-6-4-6-0z"></path>
</svg>
