<!DOCTYPE svg>
<svg xmlns="http://www.w3.org/2000/svg" viewBox="0 0 120 120" width="60" height="60">
  <path stroke="#123" stroke-width="2" stroke-linejoin="round" d="M35,105c-10,0-20-10-20-20v-50c0-10,10-20,20-20h50c10,0,20,10,20,20v50c0,10,-10,20-20,20z"></path>
  <path fill="#fc3" d="M35,15h15l25,45l-25,45h-15c-10,0-20-10-20-20v-50c0-10,10-20,20-20z"></path>
  <path fill="#fff" d="M35,15l25,45l-25,45h25l25-45l-25-45z"></path>
  <path fill="#e52" d="M60,15l25,45l-25,45h25c10,0,20-10,20-20v-50c0-10-10-20-20-20z"></path>
</svg>
