<!DOCTYPE svg>
<svg xmlns="http://www.w3.org/2000/svg" viewBox="0 0 120 120" width="60" height="60">
  <path fill="#fc0" d="M10,22c0-20,100-20,100,0v75c0,20-100,20-100,0z" stroke="#123" stroke-width="2"></path>
  <path fill="#e50" d="M11,22c0,19,98,19,98,0v5c0,19-98,19-98,0zm0,25c0,19,98,19,98,0v5c0,19-98,19-98,0zm0,25c0,19,98,19,98,0v5c0,19-98,19-98,0z"></path>
  <path fill="#fff" d="M11,27c0,19,98,19,98,0v5c0,19-98,19-98,0zm0,25c0,19,98,19,98,0v5c0,19-98,19-98,0zm0,25c0,19,98,19,98,0v5c0,19-98,19-98,0z"></path>
</svg>
