<!DOCTYPE svg>
<svg xmlns="http://www.w3.org/2000/svg" viewBox="0 0 120 120" width="600" height="600">
  <path fill="#fc0" stroke="#123" stroke-width="1" d="M2,60c0,78,116,78,116,0c0-78-116-78-116,0z"></path>
  <path fill="#e50" d="M6,60c0,72,108,72,108,0c0-72-108-72-108,0z"></path>
  <path fill="#fff" d="M50,15c-40,0-10,40-35,45c30,10-5,45,35,45c-20-10,0-30-15-45c15-15-5-35,15-45zM70,15c40,0,10,40,35,45c-30,10,5,45-35,45c20-10,0-30,15-45c-15-15,5-35-15-45zM60,23c13,0,13,20,0,20c-13,0-13-20,0-20zM60,50c13,0,13,20,0,20c-13,0-13-20,0-20zM60,77c13,0,13,20,0,20c-13,0-13-20,0-20z"></path>
</svg>
