<!DOCTYPE svg>
<svg xmlns="http://www.w3.org/2000/svg" viewBox="0 0 120 120" width="60" height="60">
  <path fill="#fc3" stroke="#123" stroke-width="1" d="M6,60c0,72,108,72,108,0c0-72-108-72-108,0z"></path>
  <path fill="#e52" d="M10,60c0,67,100,67,100,0c0-67-100-67-100,0z"></path>
  <path fill="#fff" d="
    M50,20c-40,0-10,35-35,40c30,10-5,40,35,40c-20-10,0-25-15-40c15-15-5-30,15-40z
    M70,20c40,0,10,35,35,40c-30,10,5,40-35,40c20-10,0-25,15-40c-15-15,5-30-15-40z
    M60,25c12,0,12,18,0,18-12,0-12-18,0-18z
    M60,50c12,0,12,18,0,18-12,0-12-18,0-18z
    M60,75c12,0,12,18,0,18-12,0-12-18,0-18z"></path>
</svg>
