<!DOCTYPE svg>
<svg xmlns="http://www.w3.org/2000/svg" viewBox="0 0 120 120" width="60" height="60">
  <path stroke="#123" stroke-width="2" stroke-linejoin="round" d="M5,80c20,50,130,10,110-40c-20-50-130-10-110,40m24-7c-6-15,56-39,64-24c6,15-56,39-64,24z"></path>
  <path fill="#e52" d="M5,80c20,50,130,10,110-40c-20-50-130-10-110,40m24-7c-6-15,56-39,64-24c6,15-56,39-64,24z"></path>
  <path fill="#fc3" d="M6,80c19,45,127,5,108-40c-20-49-128-9-108,40m14-11c-10-25,64-53,76-28c10,25-64,53-76,28z"></path>
  <path fill="#fff" d="M13,75c23,37,111-3,90-40c-23-37-111,3-90,40m0-8c-12-30,74-68,88-28c12,30-74,68-88,28z"></path>
</svg>
