<!DOCTYPE svg>
<svg xmlns="http://www.w3.org/2000/svg" viewBox="0 0 120 120" width="60" height="60">
  <path stroke="#123" stroke-width="2" stroke-linejoin="round" d="M13,60c0-78,94-78,94,0c0,78-94,78-94,0z"></path>
  <path fill="#fc0" d="M13,60c0-78,94-78,94,0c0,78-94,78-94,0z"></path>
  <path fill="#e50" d="M15,60c0-75,90-75,90,0c0,75-90,75-90,0z"></path>
  <path fill="#fff" d="M35,30c0-8,50-8,50,0c0,8-50,8-50,0m6,6c0-7,38-7,38,0c0,7-38,7-38,0m-1-10c0-6,40-6,40,0c0,6-40,6-40,0m13-5c0-4,14-4,14,0c0,4-14,4-14,0m6-3,l1-13,l1,13z"></path>
  <path fill="#fff" d="M48,36c10,30,4,50-6,80l5,1c10-30,16-50,5-80zM72,36c-10,30-4,50,6,80l-5,1c-10-30-16-50-5-80z"></path>
  <path fill="#fff" d="M58,19l-1,99h6l-1-99zM75,105,v-4h-30v4l15,5z"></path>
  <path fill="#fc0" d="M35,30c0,8,50,8,50,0c0,9-50,9-50,0m6,6c0,7,38,7,38,0c0,8-38,8-38,0m-1-10c0,6,40,6,40,0c0,7-40,7-40,0m13-5c0,4,14,4,14,0c0,5-14,5-14,0m5.5-14c0-2,3-2,3,0c0,2-3,2-3,0zM45,105v0.8l15,5l15-5v-0.8l-15,5z"></path>
</svg>
