<!DOCTYPE svg>
<svg xmlns="http://www.w3.org/2000/svg" viewBox="0 0 120 120">
  <path stroke="#000" stroke-width="3" stroke-linejoin="round" d="M25,100c-10,0-20-10-20-20v-40c0-10,10-20,20-20h70c10,0,20,10,20,20v40c0,10-10,20-20,20z"></path>
  <path fill="#e50" d="M25,100c-10,0-20-10-20-20v-40c0-10,10-20,20-20h70c10,0,20,10,20,20v40c0,10-10,20-20,20z"></path>
  <path fill="#fff" d="M40,96c-8,0-16-8-16-16v-40c0-8,8-16,16-16h40c8,0,16,8,16,16v40c0,8-8,16-16,16z"></path>
  <path fill="#fc0" d="M40,94c-7,0-14-7-14-14v-40c0-7,7-14,14-14h40c7,0,14,7,14,14v40c0,7-7,14-14,14z"></path>
  <path fill="#fff" d="M9,60l10-15v30zM111,60l-10-15v30z"></path>
</svg>