<?xml version="1.0" encoding="utf-8"?>
<!DOCTYPE svg PUBLIC "-//W3C//DTD SVG 1.1//EN" "http://www.w3.org/Graphics/SVG/1.1/DTD/svg11.dtd">
<svg version="1.1" xmlns="http://www.w3.org/2000/svg" xmlns:xlink="http://www.w3.org/1999/xlink" x="0px" y="0px"
	 viewBox="-50 -250 1068 680" enable-background="new 0 0 968 180" xml:space="preserve" style="background:#000">
<g id="Content">
	<g>
		<linearGradient id="SVGID_1_" gradientUnits="userSpaceOnUse" x1="704" y1="180" x2="704" y2="1.121953e-08">
			<stop  offset="0" style="stop-color:#005AFF"/>
			<stop  offset="1" style="stop-color:#0088FF"/>
		</linearGradient>
		<path fill="url(#SVGID_1_)" d="M780,76c0-41.9-34.1-76-76-76c-41.9,0-76,34.1-76,76v99c0,2.8,2.2,5,5,5h26c2.8,0,5-2.2,5-5V76
			c0-22.1,17.9-40,40-40s40,17.9,40,40v99c0,2.8,2.2,5,5,5h26c2.8,0,5-2.2,5-5L780,76L780,76z"/>
		<linearGradient id="SVGID_2_" gradientUnits="userSpaceOnUse" x1="328" y1="180" x2="328" y2="8.032657e-09">
			<stop  offset="0" style="stop-color:#005AFF"/>
			<stop  offset="1" style="stop-color:#0088FF"/>
		</linearGradient>
		<path fill="url(#SVGID_2_)" d="M252,5v26c0,2.8,2.2,5,5,5h48c2.8,0,5,2.2,5,5v134c0,2.8,2.2,5,5,5h26c2.8,0,5-2.2,5-5V41
			c0-2.8,2.2-5,5-5h48c2.8,0,5-2.2,5-5V5c0-2.8-2.2-5-5-5H257C254.2,0,252,2.2,252,5z"/>
		<linearGradient id="SVGID_3_" gradientUnits="userSpaceOnUse" x1="516" y1="180" x2="516" y2="8.032657e-09">
			<stop  offset="0" style="stop-color:#005AFF"/>
			<stop  offset="1" style="stop-color:#0088FF"/>
		</linearGradient>
		<path fill="url(#SVGID_3_)" d="M440,104c0,41.9,34.1,76,76,76c41.9,0,76-34.1,76-76V5c0-2.8-2.2-5-5-5h-26c-2.8,0-5,2.2-5,5v99
			c0,22.1-17.9,40-40,40s-40-17.9-40-40V5c0-2.8-2.2-5-5-5h-26c-2.8,0-5,2.2-5,5L440,104L440,104z"/>
		<linearGradient id="SVGID_4_" gradientUnits="userSpaceOnUse" x1="892" y1="180" x2="892" y2="8.030838e-09">
			<stop  offset="0" style="stop-color:#005AFF"/>
			<stop  offset="1" style="stop-color:#0088FF"/>
		</linearGradient>
		<path fill="url(#SVGID_4_)" d="M892,36h71c2.8,0,5-2.2,5-5V5c0-2.8-2.2-5-5-5h-72v0v0c-41.5,0.5-75,34.3-75,76v28
			c0,41.6,33.5,75.4,75,76v0v0h72c2.8,0,5-2.2,5-5v-26c0-2.8-2.2-5-5-5h-71c-18.6,0-34.2-12.6-38.7-29.8c-0.8-3.1,1.6-6.2,4.9-6.2
			H963c2.8,0,5-2.2,5-5V77c0-2.8-2.2-5-5-5H858.2c-3.3,0-5.7-3.1-4.9-6.2C857.8,48.6,873.5,36,892,36z"/>
	</g>
	<g>
		<linearGradient id="SVGID_5_" gradientUnits="userSpaceOnUse" x1="90" y1="180" x2="90" y2="-3.816240e-09">
			<stop  offset="0" style="stop-color:#005AFF"/>
			<stop  offset="1" style="stop-color:#0088FF"/>
		</linearGradient>
		<path fill="url(#SVGID_5_)" d="M175,0H90C40.3,0,0,40.3,0,90c0,49.7,40.3,90,90,90c49.7,0,90-40.3,90-90V5C180,2.2,177.8,0,175,0z
			 M90,162c-39.7,0-72-32.3-72-72s32.3-72,72-72s72,32.3,72,72S129.7,162,90,162z"/>
	</g>
</g>
<g id="Guides">
</g>
<g id="FPO">
</g>
</svg>
